<svg width="21" height="18" viewBox="0 0 21 18" fill="none" xmlns="http://www.w3.org/2000/svg">
<path d="M1.54 0.71L2.25 0L19 16.75L18.29 17.46L14.95 14.11C13.58 14.68 12.08 15 10.5 15C5.94 15 2 12.35 0.14 8.5C1.11 6.5 2.63 4.83 4.5 3.68L1.54 0.71ZM10.5 14C11.79 14 13.03 13.77 14.17 13.34L13.05 12.21C12.32 12.71 11.45 13 10.5 13C8 13 6 11 6 8.5C6 7.55 6.29 6.68 6.79 5.95L5.24 4.41C3.56564 5.38547 2.18947 6.79968 1.26 8.5C3.04 11.78 6.5 14 10.5 14ZM19.74 8.5C17.96 5.22 14.5 3 10.5 3C9.35 3 8.23 3.19 7.19 3.53L6.41 2.75C7.68 2.26 9.06 2 10.5 2C15.06 2 19 4.65 20.86 8.5C19.9513 10.3858 18.5438 11.987 16.79 13.13L16.07 12.4C17.6 11.44 18.87 10.1 19.74 8.5ZM10.5 4C13 4 15 6 15 8.5C15 9.32 14.78 10.08 14.4 10.74L13.66 10C13.88 9.54 14 9.04 14 8.5C14 7.57174 13.6313 6.6815 12.9749 6.02513C12.3185 5.36875 11.4283 5 10.5 5C9.96 5 9.46 5.12 9 5.34L8.26 4.6C8.92 4.22 9.68 4 10.5 4ZM7 8.5C7 9.42826 7.36875 10.3185 8.02513 10.9749C8.6815 11.6313 9.57174 12 10.5 12C11.17 12 11.79 11.81 12.32 11.5L7.5 6.68C7.19 7.21 7 7.83 7 8.5Z" fill="#EF0107"/>
</svg>
