<svg width="20" height="20" viewBox="0 0 18 18" fill="none" xmlns="http://www.w3.org/2000/svg">
<path d="M9.79143 11.6964C9.76011 11.6654 9.71781 11.648 9.67372 11.648C9.62964 11.648 9.58734 11.6654 9.55602 11.6964L7.13527 14.1174C6.01447 15.2383 4.12286 15.357 2.8854 14.1174C1.64586 12.8778 1.76461 10.9881 2.8854 9.86719L5.30616 7.44624C5.37074 7.38165 5.37074 7.2754 5.30616 7.21081L4.47702 6.3816C4.4457 6.35058 4.4034 6.33318 4.35931 6.33318C4.31523 6.33318 4.27293 6.35058 4.24161 6.3816L1.82086 8.80255C0.0584127 10.5651 0.0584127 13.4174 1.82086 15.1779C3.5833 16.9384 6.43529 16.9404 8.19565 15.1779L10.6164 12.7569C10.681 12.6923 10.681 12.5861 10.6164 12.5215L9.79143 11.6964ZM15.1788 1.82096C13.4163 0.0583769 10.5643 0.0583769 8.80396 1.82096L6.38112 4.24191C6.35011 4.27324 6.33271 4.31554 6.33271 4.35963C6.33271 4.40371 6.35011 4.44602 6.38112 4.47734L7.20818 5.30447C7.27276 5.36905 7.37901 5.36905 7.44359 5.30447L9.86434 2.88351C10.9851 1.76263 12.8767 1.64387 14.1142 2.88351C15.3537 4.12316 15.235 6.01283 14.1142 7.13372L11.6935 9.55467C11.6624 9.586 11.645 9.6283 11.645 9.67239C11.645 9.71647 11.6624 9.75878 11.6935 9.7901L12.5226 10.6193C12.5872 10.6839 12.6934 10.6839 12.758 10.6193L15.1788 8.19836C16.9391 6.43577 16.9391 3.58355 15.1788 1.82096ZM10.5435 5.5899C10.5122 5.55888 10.4699 5.54148 10.4258 5.54148C10.3817 5.54148 10.3394 5.55888 10.3081 5.5899L5.58948 10.3068C5.55847 10.3381 5.54107 10.3804 5.54107 10.4245C5.54107 10.4686 5.55847 10.5109 5.58948 10.5422L6.41446 11.3673C6.47904 11.4318 6.58528 11.4318 6.64987 11.3673L11.3664 6.65037C11.431 6.58578 11.431 6.47952 11.3664 6.41494L10.5435 5.5899Z" fill="#3457D5"/>
</svg>
