<svg width="16" height="16" viewBox="0 0 16 16" fill="none" xmlns="http://www.w3.org/2000/svg">
<path d="M7.37612 0.47485C7.57299 -0.158283 8.42795 -0.158283 8.62482 0.47485L10.0629 5.11096C10.1058 5.24888 10.1894 5.36902 10.3015 5.45419C10.4137 5.53936 10.5487 5.58517 10.6872 5.58507H15.3427C15.9783 5.58507 16.2426 6.4371 15.728 6.82876L11.9622 9.69307C11.85 9.77842 11.7666 9.89877 11.7238 10.0368C11.681 10.1749 11.6811 10.3236 11.7241 10.4617L13.1621 15.0978C13.359 15.7309 12.6662 16.2561 12.1525 15.8654L8.3867 13.0011C8.27458 12.9158 8.13954 12.8698 8.00094 12.8698C7.86234 12.8698 7.72729 12.9158 7.61517 13.0011L3.84751 15.8654C3.33378 16.257 2.641 15.7309 2.83786 15.0978L4.27593 10.4617C4.31887 10.3236 4.31895 10.1749 4.27617 10.0368C4.2334 9.89877 4.14995 9.77842 4.03782 9.69307L0.272031 6.82876C-0.242636 6.4371 0.0217284 5.58507 0.657328 5.58507H5.31277C5.45131 5.58517 5.58633 5.53936 5.69848 5.45419C5.81063 5.36902 5.89417 5.24888 5.93711 5.11096L7.37612 0.47485Z" fill="#FFC72C"/>
</svg>
