<svg width="21" height="21" viewBox="0 0 21 21" fill="none" xmlns="http://www.w3.org/2000/svg">
<path d="M17.7938 3.57666C16.8722 2.65077 15.7747 1.91664 14.5651 1.41703C13.3556 0.91743 12.0582 0.662355 10.7485 0.666672C5.2611 0.666672 0.788734 5.11666 0.788734 10.5766C0.788734 12.3266 1.25105 14.0266 2.11537 15.5266L0.708332 20.6666L5.98471 19.2866C7.442 20.0766 9.08019 20.4966 10.7485 20.4966C16.236 20.4966 20.7083 16.0466 20.7083 10.5866C20.7083 7.93665 19.6732 5.44666 17.7938 3.57666ZM10.7485 18.8166C9.26109 18.8166 7.80381 18.4166 6.52743 17.6666L6.22592 17.4866L3.09024 18.3066L3.92441 15.2666L3.72341 14.9566C2.89682 13.6437 2.45801 12.1259 2.45708 10.5766C2.45708 6.03666 6.17567 2.33667 10.7385 2.33667C12.9495 2.33667 15.0299 3.19667 16.5877 4.75666C17.3592 5.52052 17.9706 6.4292 18.3863 7.42998C18.8021 8.43077 19.0141 9.50373 19.0098 10.5866C19.0299 15.1266 15.3113 18.8166 10.7485 18.8166ZM15.2912 12.6566C15.04 12.5366 13.8139 11.9366 13.5928 11.8466C13.3616 11.7666 13.2008 11.7266 13.0299 11.9666C12.8591 12.2166 12.3867 12.7766 12.246 12.9366C12.1053 13.1066 11.9546 13.1266 11.7033 12.9966C11.452 12.8766 10.648 12.6066 9.70331 11.7666C8.95959 11.1066 8.46712 10.2966 8.31637 10.0466C8.17567 9.79665 8.29627 9.66665 8.42692 9.53665C8.53748 9.42665 8.67818 9.24665 8.79878 9.10665C8.91939 8.96665 8.96964 8.85665 9.05004 8.69665C9.13044 8.52665 9.09024 8.38665 9.02994 8.26665C8.96964 8.14665 8.46712 6.92666 8.26612 6.42666C8.06511 5.94666 7.85406 6.00666 7.70331 5.99666H7.22089C7.05004 5.99666 6.78873 6.05666 6.55758 6.30666C6.33647 6.55666 5.69326 7.15665 5.69326 8.37665C5.69326 9.59665 6.58773 10.7766 6.70833 10.9366C6.82893 11.1066 8.46713 13.6066 10.9596 14.6766C11.5526 14.9366 12.0149 15.0866 12.3767 15.1966C12.9696 15.3866 13.5124 15.3566 13.9445 15.2966C14.4269 15.2266 15.4219 14.6966 15.6229 14.1166C15.834 13.5366 15.834 13.0466 15.7636 12.9366C15.6933 12.8266 15.5425 12.7766 15.2912 12.6566Z" fill="#008060"/>
</svg>
