<svg _ngcontent-ddi-c186="" xmlns="http://www.w3.org/2000/svg" xmlns:xlink="http://www.w3.org/1999/xlink" width="192" height="33" viewBox="0 0 192 33" class="ng-tns-c186-25 ng-star-inserted"><defs _ngcontent-ddi-c186="" class="ng-tns-c186-25"><linearGradient _ngcontent-ddi-c186="" id="linear-gradient" x1="-0.59" y1="0.969" x2="1" y2="0.296" gradientUnits="objectBoundingBox" class="ng-tns-c186-25"><stop _ngcontent-ddi-c186="" offset="0" stop-color="#9886eb" class="ng-tns-c186-25"></stop><stop _ngcontent-ddi-c186="" offset="1" stop-color="#745be7" class="ng-tns-c186-25"></stop></linearGradient><linearGradient _ngcontent-ddi-c186="" id="linear-gradient-2" x1="1.044" y1="2.406" x2="-0.023" y2="-0.56" xlink:href="#linear-gradient" class="ng-tns-c186-25"></linearGradient><clipPath _ngcontent-ddi-c186="" id="clip-path" class="ng-tns-c186-25"><rect _ngcontent-ddi-c186="" id="Rectangle_13540" data-name="Rectangle 13540" width="24.897" height="24.897" fill="none" class="ng-tns-c186-25"></rect></clipPath><clipPath _ngcontent-ddi-c186="" id="clip-path-2" class="ng-tns-c186-25"><path _ngcontent-ddi-c186="" id="Path_27969" data-name="Path 27969" d="M11.054.68a3.272,3.272,0,0,1-3.282.879A1.772,1.772,0,0,0,5.356,2.954a3.273,3.273,0,0,1-2.4,2.4A1.772,1.772,0,0,0,1.559,7.773a3.272,3.272,0,0,1-.879,3.282,1.772,1.772,0,0,0,0,2.79,3.272,3.272,0,0,1,.879,3.282,1.772,1.772,0,0,0,1.395,2.416,3.273,3.273,0,0,1,2.4,2.4,1.772,1.772,0,0,0,2.416,1.395,3.272,3.272,0,0,1,3.282.879,1.772,1.772,0,0,0,2.79,0,3.272,3.272,0,0,1,3.282-.879,1.772,1.772,0,0,0,2.416-1.395,3.273,3.273,0,0,1,2.4-2.4,1.772,1.772,0,0,0,1.395-2.416,3.272,3.272,0,0,1,.879-3.282,1.772,1.772,0,0,0,0-2.79,3.272,3.272,0,0,1-.879-3.282,1.772,1.772,0,0,0-1.395-2.416,3.273,3.273,0,0,1-2.4-2.4,1.772,1.772,0,0,0-2.416-1.395A3.272,3.272,0,0,1,13.843.68,2.03,2.03,0,0,0,12.449,0,2.031,2.031,0,0,0,11.054.68" transform="translate(0 -0.001)" fill="none" class="ng-tns-c186-25"></path></clipPath><clipPath _ngcontent-ddi-c186="" id="clip-path-4" class="ng-tns-c186-25"><rect _ngcontent-ddi-c186="" id="Rectangle_13532" data-name="Rectangle 13532" width="18.778" height="9.506" fill="none" class="ng-tns-c186-25"></rect></clipPath><clipPath _ngcontent-ddi-c186="" id="clip-path-5" class="ng-tns-c186-25"><path _ngcontent-ddi-c186="" id="Path_27971" data-name="Path 27971" d="M56.284,64.737a8.076,8.076,0,1,1,8.076,8.076,8.085,8.085,0,0,1-8.076-8.076m4.421-8.65a9.415,9.415,0,1,0,3.655-.738,9.356,9.356,0,0,0-3.655.738" transform="translate(-54.971 -55.348)" fill="none" class="ng-tns-c186-25"></path></clipPath><clipPath _ngcontent-ddi-c186="" id="clip-path-6" class="ng-tns-c186-25"><rect _ngcontent-ddi-c186="" id="Rectangle_13537" data-name="Rectangle 13537" width="24.897" height="24.897" fill="#361daa" class="ng-tns-c186-25"></rect></clipPath><clipPath _ngcontent-ddi-c186="" id="clip-path-7" class="ng-tns-c186-25"><rect _ngcontent-ddi-c186="" id="Rectangle_13535" data-name="Rectangle 13535" width="16.151" height="8.193" fill="#361daa" class="ng-tns-c186-25"></rect></clipPath><clipPath _ngcontent-ddi-c186="" id="clip-path-8" class="ng-tns-c186-25"><rect _ngcontent-ddi-c186="" id="Rectangle_13536" data-name="Rectangle 13536" width="18.778" height="9.506" fill="#361daa" class="ng-tns-c186-25"></rect></clipPath><clipPath _ngcontent-ddi-c186="" id="clip-path-9" class="ng-tns-c186-25"><path _ngcontent-ddi-c186="" id="Path_27975" data-name="Path 27975" d="M133.291,129.726a.367.367,0,0,0-.332.209l-1.427,3-3.294.4a.367.367,0,0,0-.209.631l2.408,2.283L129.8,139.5a.367.367,0,0,0,.536.394l2.915-1.585,2.9,1.616a.367.367,0,0,0,.54-.388l-.606-3.262,2.432-2.257a.367.367,0,0,0-.2-.633l-3.29-.431-1.395-3.01a.367.367,0,0,0-.331-.213h0" transform="translate(-127.914 -129.726)" fill="#6148d4" class="ng-tns-c186-25"></path></clipPath><clipPath _ngcontent-ddi-c186="" id="clip-path-10" class="ng-tns-c186-25"><path _ngcontent-ddi-c186="" id="Path_27976" data-name="Path 27976" d="M133.291,124.061a.367.367,0,0,0-.332.209l-1.427,3-3.294.4a.367.367,0,0,0-.209.631l2.408,2.283-.641,3.255a.367.367,0,0,0,.536.394l2.915-1.585,2.9,1.616a.367.367,0,0,0,.54-.388l-.606-3.262,2.432-2.257a.367.367,0,0,0-.2-.633l-3.29-.431-1.395-3.01a.367.367,0,0,0-.331-.213h0" transform="translate(-127.914 -124.061)" fill="none" class="ng-tns-c186-25"></path></clipPath></defs><g _ngcontent-ddi-c186="" id="Group_186502" data-name="Group 186502" transform="translate(-586.5 -636.5)" class="ng-tns-c186-25"><ellipse _ngcontent-ddi-c186="" id="Ellipse_753" data-name="Ellipse 753" cx="15.5" cy="16" rx="15.5" ry="16" transform="translate(587 637)" stroke="rgba(0,0,0,0)" stroke-width="1" fill="url(#linear-gradient)" class="ng-tns-c186-25"></ellipse><rect _ngcontent-ddi-c186="" id="Rectangle_13530" data-name="Rectangle 13530" width="172" height="22" rx="6" transform="translate(606 642)" stroke="rgba(0,0,0,0)" stroke-width="1" fill="url(#linear-gradient-2)" class="ng-tns-c186-25"></rect><g _ngcontent-ddi-c186="" id="Group_41261" data-name="Group 41261" transform="translate(587.834 638.108)" class="ng-tns-c186-25"><g _ngcontent-ddi-c186="" id="Group_41260" data-name="Group 41260" transform="translate(2.476 2.514)" clip-path="url(#clip-path)" class="ng-tns-c186-25"><g _ngcontent-ddi-c186="" id="Group_41240" data-name="Group 41240" transform="translate(0 0)" class="ng-tns-c186-25"><g _ngcontent-ddi-c186="" id="Group_41239" data-name="Group 41239" clip-path="url(#clip-path-2)" class="ng-tns-c186-25"><rect _ngcontent-ddi-c186="" id="Rectangle_13531" data-name="Rectangle 13531" width="25.35" height="25.123" transform="translate(-0.226 0)" fill="#fff" class="ng-tns-c186-25"></rect></g></g><g _ngcontent-ddi-c186="" id="Group_41245" data-name="Group 41245" class="ng-tns-c186-25"><g _ngcontent-ddi-c186="" id="Group_41244" data-name="Group 41244" clip-path="url(#clip-path)" class="ng-tns-c186-25"><g _ngcontent-ddi-c186="" id="Group_41243" data-name="Group 41243" transform="translate(3.039 12.566)" opacity="0.35" style="mix-blend-mode: overlay; isolation: isolate;" class="ng-tns-c186-25"><g _ngcontent-ddi-c186="" id="Group_41242" data-name="Group 41242" class="ng-tns-c186-25"><g _ngcontent-ddi-c186="" id="Group_41241" data-name="Group 41241" clip-path="url(#clip-path-4)" class="ng-tns-c186-25"><path _ngcontent-ddi-c186="" id="Path_27970" data-name="Path 27970" d="M73.011,230.853a9.388,9.388,0,0,1-18.038-3.538c0,.039,0,.078,0,.117a9.389,9.389,0,1,0,18.778,0c0-.039,0-.078,0-.117a9.326,9.326,0,0,1-.737,3.538" transform="translate(-54.972 -227.315)" fill="#fff" class="ng-tns-c186-25"></path></g></g></g></g></g><g _ngcontent-ddi-c186="" id="Group_41247" data-name="Group 41247" transform="translate(3.039 3.06)" class="ng-tns-c186-25"><g _ngcontent-ddi-c186="" id="Group_41246" data-name="Group 41246" clip-path="url(#clip-path-5)" class="ng-tns-c186-25"><rect _ngcontent-ddi-c186="" id="Rectangle_13534" data-name="Rectangle 13534" width="18.778" height="18.778" transform="translate(0 0)" fill="#745be7" class="ng-tns-c186-25"></rect></g></g><g _ngcontent-ddi-c186="" id="Group_41255" data-name="Group 41255" class="ng-tns-c186-25"><g _ngcontent-ddi-c186="" id="Group_41254" data-name="Group 41254" clip-path="url(#clip-path-6)" class="ng-tns-c186-25"><g _ngcontent-ddi-c186="" id="Group_41250" data-name="Group 41250" transform="translate(4.352 4.373)" opacity="0.5" style="mix-blend-mode: overlay; isolation: isolate;" class="ng-tns-c186-25"><g _ngcontent-ddi-c186="" id="Group_41249" data-name="Group 41249" class="ng-tns-c186-25"><g _ngcontent-ddi-c186="" id="Group_41248" data-name="Group 41248" clip-path="url(#clip-path-7)" class="ng-tns-c186-25"><path _ngcontent-ddi-c186="" id="Path_27972" data-name="Path 27972" d="M86.8,79.337A8.085,8.085,0,0,1,94.876,87.3c0-.039,0-.078,0-.117a8.076,8.076,0,1,0-16.151,0c0,.039,0,.078,0,.117A8.085,8.085,0,0,1,86.8,79.337" transform="translate(-78.726 -79.102)" fill="#361daa" class="ng-tns-c186-25"></path></g></g></g><path _ngcontent-ddi-c186="" id="Path_27973" data-name="Path 27973" d="M86.8,235.273a8.085,8.085,0,0,1-8.074-7.958c0,.039,0,.078,0,.117a8.076,8.076,0,0,0,16.151,0c0-.039,0-.078,0-.117a8.085,8.085,0,0,1-8.074,7.958" transform="translate(-74.374 -214.749)" fill="#361daa" class="ng-tns-c186-25"></path><g _ngcontent-ddi-c186="" id="Group_41253" data-name="Group 41253" transform="translate(3.039 3.06)" opacity="0.3" class="ng-tns-c186-25"><g _ngcontent-ddi-c186="" id="Group_41252" data-name="Group 41252" class="ng-tns-c186-25"><g _ngcontent-ddi-c186="" id="Group_41251" data-name="Group 41251" clip-path="url(#clip-path-8)" class="ng-tns-c186-25"><path _ngcontent-ddi-c186="" id="Path_27974" data-name="Path 27974" d="M55.709,61.317a9.388,9.388,0,0,1,18.038,3.537c0-.039,0-.078,0-.117a9.389,9.389,0,1,0-18.778,0c0,.039,0,.078,0,.117a9.325,9.325,0,0,1,.737-3.537" transform="translate(-54.971 -55.348)" fill="#361daa" class="ng-tns-c186-25"></path></g></g></g></g></g><g _ngcontent-ddi-c186="" id="Group_41257" data-name="Group 41257" transform="translate(7.071 7.171)" class="ng-tns-c186-25"><g _ngcontent-ddi-c186="" id="Group_41256" data-name="Group 41256" clip-path="url(#clip-path-9)" class="ng-tns-c186-25"><rect _ngcontent-ddi-c186="" id="Rectangle_13538" data-name="Rectangle 13538" width="10.765" height="10.241" transform="translate(-0.026 0)" fill="#6148d4" class="ng-tns-c186-25"></rect></g></g><g _ngcontent-ddi-c186="" id="Group_41259" data-name="Group 41259" transform="translate(7.071 6.858)" class="ng-tns-c186-25"><g _ngcontent-ddi-c186="" id="Group_41258" data-name="Group 41258" clip-path="url(#clip-path-10)" class="ng-tns-c186-25"><rect _ngcontent-ddi-c186="" id="Rectangle_13539" data-name="Rectangle 13539" width="10.765" height="10.241" transform="translate(-0.026 0)" fill="#7c65e8" class="ng-tns-c186-25"></rect></g></g></g></g><text _ngcontent-ddi-c186="" id="Shopbraze_Recommendation" data-name="Shopbraze Recommendation" transform="translate(621 657)" fill="#fff" font-size="12" font-family="SFProDisplay-Medium, SF Pro Display" font-weight="500" class="ng-tns-c186-25"><tspan _ngcontent-ddi-c186="" x="0" y="0" class="ng-tns-c186-25">ShopBraze Recommendation</tspan></text></g></svg>