<svg width="18" height="18" viewBox="0 0 18 18" fill="none" xmlns="http://www.w3.org/2000/svg">
<path d="M15.22 17.75H2.78C2.43321 17.7358 2.09262 17.6535 1.77771 17.5075C1.4628 17.3616 1.17975 17.155 0.944758 16.8996C0.709768 16.6442 0.52745 16.3449 0.408236 16.019C0.289022 15.693 0.235251 15.3468 0.250001 15V12C0.250001 11.8011 0.329019 11.6103 0.469671 11.4697C0.610323 11.329 0.801089 11.25 1 11.25C1.19891 11.25 1.38968 11.329 1.53033 11.4697C1.67098 11.6103 1.75 11.8011 1.75 12V15C1.72418 15.2969 1.81364 15.5924 1.99983 15.8251C2.18602 16.0579 2.45465 16.21 2.75 16.25H15.22C15.5154 16.21 15.784 16.0579 15.9702 15.8251C16.1564 15.5924 16.2458 15.2969 16.22 15V12C16.22 11.8011 16.299 11.6103 16.4397 11.4697C16.5803 11.329 16.7711 11.25 16.97 11.25C17.1689 11.25 17.3597 11.329 17.5003 11.4697C17.641 11.6103 17.72 11.8011 17.72 12V15C17.7499 15.6954 17.5041 16.3744 17.0359 16.8894C16.5677 17.4044 15.9151 17.7137 15.22 17.75ZM13 5.75C12.9015 5.75046 12.8038 5.73124 12.7128 5.69346C12.6218 5.65568 12.5392 5.60011 12.47 5.53L9 2.06L5.53 5.53C5.38783 5.66248 5.19978 5.7346 5.00548 5.73117C4.81118 5.72774 4.62579 5.64903 4.48838 5.51162C4.35097 5.3742 4.27225 5.18882 4.26883 4.99452C4.2654 4.80022 4.33752 4.61217 4.47 4.47L8.47 0.469996C8.61063 0.329546 8.80125 0.250656 9 0.250656C9.19875 0.250656 9.38938 0.329546 9.53 0.469996L13.53 4.47C13.6705 4.61062 13.7493 4.80125 13.7493 5C13.7493 5.19875 13.6705 5.38937 13.53 5.53C13.4608 5.60011 13.3782 5.65568 13.2872 5.69346C13.1962 5.73124 13.0985 5.75046 13 5.75Z" fill="#008060"/>
<path d="M9 12.75C8.80189 12.7474 8.61263 12.6676 8.47253 12.5275C8.33244 12.3874 8.25259 12.1981 8.25 12V1C8.25 0.801088 8.32902 0.610322 8.46967 0.46967C8.61032 0.329018 8.80109 0.25 9 0.25C9.19891 0.25 9.38968 0.329018 9.53033 0.46967C9.67098 0.610322 9.75 0.801088 9.75 1V12C9.74741 12.1981 9.66756 12.3874 9.52747 12.5275C9.38737 12.6676 9.19811 12.7474 9 12.75Z" fill="#008060"/>
</svg>
