<svg xmlns="http://www.w3.org/2000/svg" width="33" height="28" viewBox="0 0 33 28" fill="none">
  <path d="M9.75692 24.0871C7.93291 23.9691 6.19979 23.3689 4.80502 22.3721C3.41025 21.3752 2.42515 20.0328 1.99038 18.5364C1.55562 17.04 1.69342 15.4662 2.38411 14.0397C3.07479 12.6132 4.28305 11.4069 5.83636 10.5931C6.16687 8.42293 7.42515 6.42854 9.37571 4.98317C11.3263 3.5378 13.8354 2.74051 16.4336 2.74051C19.0318 2.74051 21.541 3.5378 23.4916 4.98317C25.4421 6.42854 26.7004 8.42293 27.0309 10.5931C28.5842 11.4069 29.7925 12.6132 30.4831 14.0397C31.1738 15.4662 31.3116 17.04 30.8769 18.5364C30.4421 20.0328 29.457 21.3752 28.0622 22.3721C26.6675 23.3689 24.9343 23.9691 23.1103 24.0871V24.1084H9.75692V24.0871ZM17.769 15.1125H21.775L16.4336 9.48998L11.0923 15.1125H15.0983V19.6105H17.769V15.1125Z" fill="#008060"/>
</svg>