<svg width="24" height="24" viewBox="0 0 24 24" fill="none" xmlns="http://www.w3.org/2000/svg">
<path d="M23.7733 21.0248L13.67 1.06155C12.9538 -0.35385 11.0462 -0.35385 10.3294 1.06155L0.22671 21.0248C0.0712221 21.332 -0.00673225 21.6769 0.000455694 22.0258C0.00764364 22.3747 0.0997284 22.7157 0.267722 23.0154C0.435715 23.3151 0.673877 23.5634 0.95896 23.736C1.24404 23.9085 1.56631 23.9995 1.8943 24H22.1027C22.431 24 22.7536 23.9095 23.0391 23.7371C23.3246 23.5648 23.5632 23.3166 23.7315 23.0168C23.8999 22.7169 23.9922 22.3758 23.9995 22.0266C24.0069 21.6775 23.9289 21.3323 23.7733 21.0248ZM12 20.9093C11.7655 20.9093 11.5363 20.8353 11.3413 20.6967C11.1463 20.5581 10.9944 20.3611 10.9046 20.1306C10.8149 19.9001 10.7914 19.6464 10.8372 19.4017C10.8829 19.157 10.9958 18.9322 11.1616 18.7558C11.3274 18.5794 11.5387 18.4592 11.7687 18.4106C11.9987 18.3619 12.2371 18.3869 12.4537 18.4824C12.6704 18.5778 12.8555 18.7395 12.9858 18.947C13.1161 19.1544 13.1856 19.3983 13.1856 19.6478C13.1856 19.9824 13.0607 20.3033 12.8384 20.5398C12.616 20.7764 12.3144 20.9093 12 20.9093ZM13.2876 8.22181L12.9473 15.917C12.9473 16.1846 12.8474 16.4413 12.6695 16.6306C12.4916 16.8198 12.2504 16.9262 11.9988 16.9262C11.7473 16.9262 11.506 16.8198 11.3281 16.6306C11.1502 16.4413 11.0503 16.1846 11.0503 15.917L10.71 8.22497C10.7024 8.04116 10.7296 7.8576 10.7901 7.68522C10.8505 7.51284 10.9429 7.35517 11.0619 7.22162C11.1808 7.08807 11.3238 6.98136 11.4823 6.90786C11.6409 6.83436 11.8117 6.79557 11.9846 6.7938H11.997C12.1711 6.7937 12.3434 6.83114 12.5036 6.90384C12.6637 6.97655 12.8083 7.08301 12.9287 7.21682C13.0491 7.35063 13.1427 7.509 13.204 7.68238C13.2653 7.85576 13.2929 8.04055 13.2852 8.2256L13.2876 8.22181Z" fill="#FF2222"/>
</svg>
