<svg width="20" height="20" viewBox="0 0 20 20" fill="none" xmlns="http://www.w3.org/2000/svg">
<path d="M15.2725 6.07167H8.56917C8.35774 6.07222 8.14851 6.11444 7.95342 6.19593C7.75833 6.27742 7.58123 6.39657 7.43223 6.54657C7.28324 6.69657 7.16528 6.87447 7.08511 7.0701C7.00494 7.26573 6.96412 7.47525 6.965 7.68667V16.0933C6.965 16.985 7.68333 17.7083 8.56917 17.7083H15.2725C15.4839 17.7078 15.6932 17.6656 15.8882 17.5841C16.0833 17.5026 16.2604 17.3834 16.4094 17.2334C16.5584 17.0834 16.6764 16.9055 16.7566 16.7099C16.8367 16.5143 16.8775 16.3048 16.8767 16.0933V7.68667C16.8767 6.795 16.1583 6.07167 15.2725 6.07167Z" stroke="#008060" stroke-width="1.5" stroke-linecap="round" stroke-linejoin="round"/>
<path d="M13.035 6.07166V3.90666C13.035 3.47833 12.8658 3.0675 12.565 2.765C12.4165 2.61524 12.2398 2.49633 12.0452 2.41509C11.8505 2.33386 11.6417 2.29191 11.4308 2.29166H4.7275C4.3025 2.29166 3.89417 2.46166 3.59417 2.765C3.2931 3.06877 3.12392 3.47898 3.12333 3.90666V12.3133C3.12333 12.7417 3.2925 13.1525 3.59333 13.455C3.89417 13.7575 4.30167 13.9283 4.7275 13.9283H6.965" stroke="#008060" stroke-width="1.5" stroke-linecap="round" stroke-linejoin="round"/>
</svg>
