<svg width="20" height="20" viewBox="0 0 20 20" fill="none" xmlns="http://www.w3.org/2000/svg">
<path d="M18.9783 1.15832C18.6363 0.798753 18.2259 0.511248 17.7711 0.312734C17.3163 0.11422 16.8264 0.00871056 16.3303 0.00241989C15.8341 -0.00387077 15.3417 0.0891847 14.882 0.276105C14.4224 0.463026 14.0048 0.740032 13.6538 1.09081L1.93351 12.8105C1.52396 13.2201 1.2395 13.7378 1.1134 14.3032L0.0169997 19.2411C-0.00587872 19.3437 -0.0025019 19.4504 0.0268173 19.5514C0.0561365 19.6523 0.110451 19.7443 0.184734 19.8187C0.259017 19.8931 0.35087 19.9475 0.45179 19.977C0.552711 20.0065 0.659439 20.0101 0.762099 19.9874L5.6715 18.896C6.25632 18.7671 6.7918 18.4729 7.21421 18.0485L18.9133 6.34999C19.599 5.66399 19.9896 4.73724 20.0017 3.76738C20.0139 2.79751 19.6466 1.86127 18.9783 1.15832ZM14.5377 1.97463C14.7664 1.74267 15.0387 1.55825 15.3389 1.43198C15.6392 1.30572 15.9615 1.24011 16.2872 1.23895C16.6129 1.23778 16.9357 1.30107 17.2368 1.42518C17.538 1.54929 17.8116 1.73175 18.042 1.96207C18.2723 2.19239 18.4548 2.466 18.5789 2.76715C18.703 3.06829 18.7663 3.39102 18.7651 3.71674C18.764 4.04245 18.6983 4.36472 18.5721 4.66497C18.4458 4.96521 18.2614 5.23751 18.0294 5.46617L17.1905 6.30499L13.6988 2.8147L14.5377 1.97463ZM12.815 3.69978L16.3067 7.19006L6.33034 17.1659C6.07601 17.4223 5.75303 17.5999 5.40022 17.6772L1.44969 18.5548L2.33481 14.5757C2.40857 14.2419 2.57609 13.9369 2.81737 13.6956L12.815 3.69978Z" fill="#008060"/>
</svg>
