<svg width="22" height="20" viewBox="0 0 22 20" fill="none" xmlns="http://www.w3.org/2000/svg">
<path d="M20.0272 1.15832C19.6682 0.798753 19.2372 0.511248 18.7597 0.312734C18.2822 0.11422 17.7678 0.00871056 17.2468 0.00241989C16.7258 -0.00387078 16.2088 0.0891847 15.7261 0.276105C15.2435 0.463026 14.805 0.740032 14.4365 1.09081L2.13018 12.8105C1.70016 13.2201 1.40148 13.7378 1.26907 14.3032L0.117854 19.2411C0.0938315 19.3437 0.0973772 19.4504 0.128162 19.5514C0.158948 19.6523 0.215977 19.7443 0.293975 19.8187C0.371972 19.8931 0.468417 19.9475 0.574384 19.977C0.680351 20.0065 0.792416 20.0101 0.900208 19.9874L6.05508 18.896C6.66914 18.7671 7.23139 18.4729 7.67492 18.0485L19.9589 6.34999C20.679 5.66399 21.0891 4.73724 21.1018 3.76738C21.1146 2.79751 20.729 1.86127 20.0272 1.15832ZM15.3646 1.97463C15.6047 1.74267 15.8906 1.55825 16.2059 1.43198C16.5212 1.30572 16.8596 1.24011 17.2016 1.23895C17.5436 1.23778 17.8825 1.30107 18.1987 1.42518C18.5149 1.54929 18.8022 1.73175 19.0441 1.96207C19.2859 2.19239 19.4775 2.466 19.6078 2.76715C19.7382 3.06829 19.8046 3.39102 19.8034 3.71674C19.8022 4.04245 19.7333 4.36472 19.6007 4.66496C19.4681 4.96521 19.2744 5.23751 19.0309 5.46617L18.1501 6.30499L14.4838 2.8147L15.3646 1.97463ZM13.5557 3.69978L17.222 7.19006L6.74686 17.1659C6.47982 17.4223 6.14069 17.5999 5.77023 17.6772L1.62218 18.5548L2.55155 14.5757C2.629 14.2419 2.8049 13.9369 3.05825 13.6956L13.5557 3.69978Z" fill="white"/>
</svg>
