<svg width="16" height="16" viewBox="0 0 16 16" fill="none" xmlns="http://www.w3.org/2000/svg">
<path d="M13 3.5V6.5C13 6.63261 12.9473 6.75978 12.8536 6.85355C12.7598 6.94732 12.6326 7 12.5 7C12.3674 7 12.2402 6.94732 12.1464 6.85355C12.0527 6.75978 12 6.63261 12 6.5V4.71L9.85 6.86C9.7557 6.95108 9.6294 7.00147 9.4983 7.00034C9.3672 6.9992 9.2418 6.94661 9.14909 6.85391C9.05639 6.7612 9.0038 6.6358 9.00266 6.5047C9.00153 6.3736 9.05192 6.2473 9.143 6.153L11.293 4.003H9.503C9.37039 4.003 9.24322 3.95032 9.14945 3.85655C9.05568 3.76278 9.003 3.63561 9.003 3.503C9.003 3.37039 9.05568 3.24321 9.14945 3.14945C9.24322 3.05568 9.37039 3.003 9.503 3.003H12.503C12.6344 3.00302 12.7605 3.05475 12.854 3.147L12.858 3.151C12.9495 3.2438 13.0012 3.36866 13.002 3.499V3.503L13 3.5ZM3.5 9C3.63261 9 3.75979 9.05268 3.85355 9.14644C3.94732 9.24021 4 9.36739 4 9.5V11.29L6.15 9.14C6.2443 9.04892 6.3706 8.99852 6.5017 8.99966C6.6328 9.0008 6.75821 9.05338 6.85091 9.14609C6.94361 9.23879 6.9962 9.3642 6.99734 9.4953C6.99848 9.6264 6.94808 9.7527 6.857 9.847L4.707 11.997H6.497C6.62961 11.997 6.75679 12.0497 6.85056 12.1434C6.94432 12.2372 6.997 12.3644 6.997 12.497C6.997 12.6296 6.94432 12.7568 6.85056 12.8506C6.75679 12.9443 6.62961 12.997 6.497 12.997H3.494C3.36209 12.9962 3.23583 12.9433 3.14274 12.8498C3.04965 12.7564 2.99726 12.6299 2.997 12.498V9.498C2.997 9.36539 3.04968 9.23821 3.14345 9.14444C3.23722 9.05068 3.36439 8.998 3.497 8.998L3.5 9Z" fill="#008060"/>
<path fill-rule="evenodd" clip-rule="evenodd" d="M0 4.8C0 3.12 0 2.28 0.327 1.64C0.615638 1.07687 1.07387 0.618637 1.637 0.329998C2.279 0.00299838 3.117 0.00299835 4.797 0.00299835H11.197C12.877 0.00299835 13.717 0.00299838 14.357 0.329998C14.9201 0.618637 15.3784 1.07687 15.667 1.64C15.994 2.282 15.994 3.12 15.994 4.8V11.2C15.994 12.88 15.994 13.72 15.667 14.36C15.3795 14.9239 14.9209 15.3825 14.357 15.67C13.715 15.997 12.877 15.997 11.197 15.997H4.797C3.117 15.997 2.277 15.997 1.637 15.67C1.07306 15.3825 0.614525 14.9239 0.327 14.36C0 13.718 0 12.88 0 11.2V4.8ZM4.8 0.999998H11.2C12.057 0.999998 12.64 0.999998 13.09 1.038C13.528 1.073 13.753 1.138 13.909 1.218C14.285 1.41 14.591 1.716 14.783 2.092C14.863 2.248 14.928 2.472 14.963 2.911C15 3.361 15.001 3.941 15.001 4.801V11.201C15.001 12.058 15 12.641 14.963 13.091C14.927 13.529 14.862 13.754 14.783 13.91C14.5913 14.2863 14.2853 14.5923 13.909 14.784C13.753 14.864 13.528 14.929 13.09 14.964C12.64 15 12.06 15.001 11.2 15.001H4.8C3.943 15.001 3.36 15.001 2.91 14.964C2.472 14.928 2.247 14.863 2.091 14.784C1.71469 14.5923 1.40874 14.2863 1.217 13.91C1.137 13.754 1.072 13.529 1.037 13.09C1 12.64 0.999 12.06 0.999 11.2V4.8C0.999 3.944 1 3.36 1.037 2.91C1.073 2.473 1.138 2.248 1.217 2.092C1.409 1.716 1.715 1.41 2.091 1.218C2.247 1.138 2.472 1.073 2.91 1.038C3.36 0.999998 3.94 0.999998 4.8 0.999998Z" fill="#008060"/>
</svg>
