<svg width="20" height="20" viewBox="0 0 20 20" fill="none" xmlns="http://www.w3.org/2000/svg">
<path fill-rule="evenodd" clip-rule="evenodd" d="M17.1083 3.775C17.2187 3.65652 17.2788 3.49981 17.276 3.3379C17.2731 3.17598 17.2075 3.02149 17.093 2.90698C16.9785 2.79247 16.824 2.72688 16.6621 2.72402C16.5002 2.72116 16.3435 2.78127 16.225 2.89167L2.89167 16.225C2.83026 16.2822 2.78101 16.3512 2.74685 16.4279C2.71269 16.5045 2.69432 16.5873 2.69284 16.6712C2.69136 16.7552 2.7068 16.8385 2.73823 16.9163C2.76966 16.9942 2.81645 17.0648 2.8758 17.1242C2.93515 17.1835 3.00584 17.2303 3.08367 17.2618C3.16149 17.2932 3.24485 17.3086 3.32877 17.3072C3.41269 17.3057 3.49545 17.2873 3.57211 17.2532C3.64878 17.219 3.71778 17.1697 3.775 17.1083L6.1475 14.7358C7.28666 15.2725 8.5975 15.625 10 15.625C12.2367 15.625 14.2417 14.7275 15.6833 13.6208C16.4058 13.0667 17.0025 12.4483 17.4242 11.8408C17.8342 11.25 18.125 10.6025 18.125 10C18.125 9.3975 17.8333 8.75 17.4242 8.15917C17.0025 7.55167 16.4058 6.93417 15.6842 6.37917C15.4653 6.21083 15.2342 6.04889 14.9908 5.89333L17.1083 3.775ZM14.0833 6.80083L12.6075 8.27667C13.0054 8.87761 13.1833 9.59761 13.1112 10.3147C13.039 11.0318 12.7212 11.702 12.2116 12.2116C11.702 12.7212 11.0318 13.039 10.3147 13.1112C9.59761 13.1833 8.87761 13.0054 8.27666 12.6075L7.09583 13.7875C8.01709 14.1683 9.00317 14.3678 10 14.375C11.9058 14.375 13.65 13.6058 14.9225 12.6292C15.5575 12.1417 16.0592 11.6142 16.3975 11.1283C16.7467 10.625 16.875 10.2308 16.875 10C16.875 9.76917 16.7467 9.375 16.3975 8.87167C16.0592 8.38583 15.5575 7.85833 14.9225 7.37083C14.6614 7.17028 14.3822 6.98028 14.0833 6.80083ZM9.19083 11.6925C9.54072 11.8596 9.9338 11.9141 10.316 11.8486C10.6981 11.783 11.0505 11.6006 11.3247 11.3264C11.5989 11.0522 11.7813 10.6998 11.8469 10.3176C11.9125 9.93547 11.8579 9.54238 11.6908 9.1925L9.19083 11.6925Z" fill="#008060"/>
<path d="M10 4.375C10.86 4.375 11.6867 4.50833 12.4592 4.73417C12.493 4.74426 12.5236 4.76302 12.5479 4.78858C12.5723 4.81414 12.5895 4.84562 12.5979 4.8799C12.6063 4.91417 12.6057 4.95005 12.5959 4.98399C12.5862 5.01792 12.5678 5.04872 12.5425 5.07333L11.8558 5.76083C11.8305 5.7864 11.799 5.80497 11.7644 5.81476C11.7298 5.82454 11.6933 5.8252 11.6583 5.81667C11.1144 5.69127 10.5582 5.62698 10 5.625C8.09417 5.625 6.35 6.39417 5.0775 7.37083C4.4425 7.85833 3.94083 8.38583 3.6025 8.87167C3.25333 9.375 3.125 9.76917 3.125 10C3.125 10.2308 3.25333 10.625 3.6025 11.1283C3.8975 11.5533 4.3175 12.0092 4.8425 12.4425C4.93917 12.5217 4.94833 12.6675 4.85917 12.7567L4.26917 13.3475C4.23303 13.3842 4.18443 13.4059 4.13302 13.4083C4.08161 13.4108 4.03115 13.3939 3.99167 13.3608C3.45501 12.9186 2.97897 12.4075 2.57583 11.8408C2.16667 11.25 1.875 10.6025 1.875 10C1.875 9.3975 2.16667 8.75 2.57583 8.15917C2.9975 7.55167 3.59417 6.93417 4.31583 6.37917C5.75833 5.2725 7.76333 4.375 10 4.375Z" fill="#008060"/>
<path d="M10 6.875C10.0989 6.875 10.1964 6.87944 10.2925 6.88833C10.4567 6.90417 10.5158 7.1 10.4 7.21667L9.38916 8.22667C9.12012 8.31994 8.87572 8.47302 8.67437 8.67437C8.47302 8.87573 8.31994 9.12012 8.22666 9.38917L7.21666 10.4C7.1 10.5167 6.90416 10.4567 6.88833 10.2925C6.84761 9.85933 6.89778 9.42244 7.03565 9.00978C7.17351 8.59713 7.39602 8.21781 7.68893 7.8961C7.98184 7.5744 8.33871 7.31741 8.73667 7.14157C9.13463 6.96574 9.56492 6.87495 10 6.875Z" fill="#008060"/>
</svg>
