<svg width="20" height="20" viewBox="0 0 20 20" fill="none" xmlns="http://www.w3.org/2000/svg">
<path d="M11.7914 13.6964C11.7601 13.6654 11.7178 13.648 11.6737 13.648C11.6296 13.648 11.5873 13.6654 11.556 13.6964L9.13527 16.1174C8.01447 17.2383 6.12286 17.357 4.8854 16.1174C3.64586 14.8778 3.76461 12.9881 4.8854 11.8672L7.30616 9.44624C7.37074 9.38165 7.37074 9.2754 7.30616 9.21081L6.47702 8.3816C6.4457 8.35058 6.4034 8.33318 6.35931 8.33318C6.31523 8.33318 6.27293 8.35058 6.24161 8.3816L3.82086 10.8026C2.05841 12.5651 2.05841 15.4174 3.82086 17.1779C5.5833 18.9384 8.43529 18.9405 10.1956 17.1779L12.6164 14.7569C12.681 14.6923 12.681 14.5861 12.6164 14.5215L11.7914 13.6964ZM17.1788 3.82096C15.4163 2.05838 12.5643 2.05838 10.804 3.82096L8.38112 6.24191C8.35011 6.27324 8.33271 6.31554 8.33271 6.35963C8.33271 6.40371 8.35011 6.44602 8.38112 6.47734L9.20818 7.30447C9.27276 7.36905 9.37901 7.36905 9.44359 7.30447L11.8643 4.88351C12.9851 3.76263 14.8767 3.64387 16.1142 4.88351C17.3537 6.12316 17.235 8.01283 16.1142 9.13372L13.6935 11.5547C13.6624 11.586 13.645 11.6283 13.645 11.6724C13.645 11.7165 13.6624 11.7588 13.6935 11.7901L14.5226 12.6193C14.5872 12.6839 14.6934 12.6839 14.758 12.6193L17.1788 10.1984C18.9391 8.43577 18.9391 5.58355 17.1788 3.82096ZM12.5435 7.5899C12.5122 7.55888 12.4699 7.54148 12.4258 7.54148C12.3817 7.54148 12.3394 7.55888 12.3081 7.5899L7.58948 12.3068C7.55847 12.3381 7.54107 12.3804 7.54107 12.4245C7.54107 12.4686 7.55847 12.5109 7.58948 12.5422L8.41446 13.3673C8.47904 13.4318 8.58528 13.4318 8.64987 13.3673L13.3664 8.65037C13.431 8.58578 13.431 8.47952 13.3664 8.41494L12.5435 7.5899Z" fill="#3457D5"/>
</svg>
