<svg width="16" height="16" viewBox="0 0 16 16" fill="none" xmlns="http://www.w3.org/2000/svg">
<path d="M12.6667 7.33334H8.66667V3.33334C8.66667 3.15653 8.59643 2.98696 8.47141 2.86193C8.34639 2.73691 8.17682 2.66667 8.00001 2.66667C7.82319 2.66667 7.65363 2.73691 7.5286 2.86193C7.40358 2.98696 7.33334 3.15653 7.33334 3.33334V7.33334H3.33334C3.15653 7.33334 2.98696 7.40358 2.86193 7.5286C2.73691 7.65363 2.66667 7.82319 2.66667 8.00001C2.66667 8.17682 2.73691 8.34639 2.86193 8.47141C2.98696 8.59643 3.15653 8.66667 3.33334 8.66667H7.33334V12.6667C7.33334 12.8435 7.40358 13.0131 7.5286 13.1381C7.65363 13.2631 7.82319 13.3333 8.00001 13.3333C8.17682 13.3333 8.34639 13.2631 8.47141 13.1381C8.59643 13.0131 8.66667 12.8435 8.66667 12.6667V8.66667H12.6667C12.8435 8.66667 13.0131 8.59643 13.1381 8.47141C13.2631 8.34639 13.3333 8.17682 13.3333 8.00001C13.3333 7.82319 13.2631 7.65363 13.1381 7.5286C13.0131 7.40358 12.8435 7.33334 12.6667 7.33334Z" fill="#008060"/>
</svg>
