<svg width="20" height="20" viewBox="0 0 20 20" fill="none" xmlns="http://www.w3.org/2000/svg">
<path fill-rule="evenodd" clip-rule="evenodd" d="M1.5 10C1.5 11.1162 1.71986 12.2215 2.14702 13.2528C2.57419 14.2841 3.20029 15.2211 3.98959 16.0104C4.77889 16.7997 5.71592 17.4258 6.74719 17.853C7.77846 18.2801 8.88376 18.5 10 18.5C11.1162 18.5 12.2215 18.2801 13.2528 17.853C14.2841 17.4258 15.2211 16.7997 16.0104 16.0104C16.7997 15.2211 17.4258 14.2841 17.853 13.2528C18.2801 12.2215 18.5 11.1162 18.5 10C18.5 7.74566 17.6045 5.58365 16.0104 3.98959C14.4163 2.39553 12.2543 1.5 10 1.5C7.74566 1.5 5.58365 2.39553 3.98959 3.98959C2.39553 5.58365 1.5 7.74566 1.5 10ZM17.5 10C17.5 11.9891 16.7098 13.8968 15.3033 15.3033C13.8968 16.7098 11.9891 17.5 10 17.5C8.01088 17.5 6.10322 16.7098 4.6967 15.3033C3.29018 13.8968 2.5 11.9891 2.5 10C2.5 8.01088 3.29018 6.10322 4.6967 4.6967C6.10322 3.29018 8.01088 2.5 10 2.5C11.9891 2.5 13.8968 3.29018 15.3033 4.6967C16.7098 6.10322 17.5 8.01088 17.5 10Z" fill="#008060"/>
<path fill-rule="evenodd" clip-rule="evenodd" d="M6.5 10C6.5 14.396 7.942 18 10 18C12.058 18 13.5 14.396 13.5 10C13.5 5.604 12.058 2 10 2C7.942 2 6.5 5.604 6.5 10ZM12.5 10C12.5 13.889 11.255 17 10 17C8.745 17 7.5 13.889 7.5 10C7.5 6.111 8.745 3 10 3C11.255 3 12.5 6.111 12.5 10Z" fill="#008060"/>
<path d="M3.735 5.31201L4.405 4.57001C4.51167 4.66601 4.626 4.75967 4.748 4.85101C6.066 5.83901 8.146 6.44101 10.413 6.44101C12.346 6.44101 14.15 6.00401 15.468 5.25101C15.7716 5.07914 16.0586 4.87927 16.325 4.65401L16.975 5.41401C16.6763 5.66934 16.3397 5.90401 15.965 6.11801C14.488 6.96301 12.513 7.44101 10.413 7.44101C7.943 7.44101 5.651 6.77801 4.148 5.65101C4.00535 5.54387 3.86754 5.43142 3.735 5.31201ZM3.735 14.7L4.405 15.44C4.51167 15.3433 4.626 15.25 4.748 15.16C6.066 14.172 8.146 13.57 10.413 13.57C12.346 13.57 14.15 14.006 15.468 14.76C15.7893 14.9447 16.075 15.1433 16.325 15.356L16.975 14.596C16.661 14.3304 16.3229 14.0947 15.965 13.892C14.488 13.048 12.513 12.57 10.413 12.57C7.943 12.57 5.651 13.233 4.148 14.359C4.00133 14.469 3.86367 14.5833 3.735 14.7ZM2 10.5V9.50001H18V10.5H2Z" fill="#008060"/>
</svg>
