<svg width="14" height="14" viewBox="0 0 14 14" fill="none" xmlns="http://www.w3.org/2000/svg">
<path d="M7 0.625C5.73915 0.625 4.50661 0.998887 3.45824 1.69938C2.40988 2.39988 1.59278 3.39551 1.11027 4.56039C0.627762 5.72527 0.501516 7.00707 0.747497 8.2437C0.993478 9.48033 1.60064 10.6162 2.4922 11.5078C3.38376 12.3994 4.51967 13.0065 5.7563 13.2525C6.99293 13.4985 8.27473 13.3722 9.43961 12.8897C10.6045 12.4072 11.6001 11.5901 12.3006 10.5418C13.0011 9.4934 13.375 8.26086 13.375 7C13.373 5.30985 12.7007 3.6895 11.5056 2.49439C10.3105 1.29927 8.69015 0.626985 7 0.625ZM7 12.625C5.88748 12.625 4.79995 12.2951 3.87492 11.677C2.94989 11.0589 2.22892 10.1804 1.80318 9.15259C1.37744 8.12476 1.26604 6.99376 1.48309 5.90262C1.70013 4.81147 2.23586 3.80919 3.02253 3.02252C3.8092 2.23585 4.81148 1.70012 5.90262 1.48308C6.99376 1.26604 8.12476 1.37743 9.1526 1.80318C10.1804 2.22892 11.0589 2.94989 11.677 3.87492C12.2951 4.79994 12.625 5.88748 12.625 7C12.6233 8.49134 12.0302 9.92112 10.9757 10.9756C9.92112 12.0302 8.49134 12.6233 7 12.625ZM7.625 7C7.625 7.12361 7.58835 7.24445 7.51967 7.34723C7.451 7.45001 7.35338 7.53012 7.23918 7.57743C7.12498 7.62473 6.99931 7.63711 6.87807 7.61299C6.75683 7.58887 6.64547 7.52935 6.55806 7.44194C6.47065 7.35453 6.41113 7.24317 6.38701 7.12193C6.3629 7.00069 6.37527 6.87503 6.42258 6.76082C6.46988 6.64662 6.54999 6.54901 6.65277 6.48033C6.75555 6.41166 6.87639 6.375 7 6.375C7.16576 6.375 7.32473 6.44085 7.44195 6.55806C7.55916 6.67527 7.625 6.83424 7.625 7ZM4.875 7C4.875 7.12361 4.83835 7.24445 4.76967 7.34723C4.701 7.45001 4.60338 7.53012 4.48918 7.57743C4.37498 7.62473 4.24931 7.63711 4.12807 7.61299C4.00683 7.58887 3.89547 7.52935 3.80806 7.44194C3.72065 7.35453 3.66113 7.24317 3.63701 7.12193C3.6129 7.00069 3.62527 6.87503 3.67258 6.76082C3.71988 6.64662 3.79999 6.54901 3.90277 6.48033C4.00555 6.41166 4.12639 6.375 4.25 6.375C4.41576 6.375 4.57473 6.44085 4.69194 6.55806C4.80915 6.67527 4.875 6.83424 4.875 7ZM10.375 7C10.375 7.12361 10.3383 7.24445 10.2697 7.34723C10.201 7.45001 10.1034 7.53012 9.98918 7.57743C9.87498 7.62473 9.74931 7.63711 9.62807 7.61299C9.50683 7.58887 9.39547 7.52935 9.30806 7.44194C9.22065 7.35453 9.16113 7.24317 9.13701 7.12193C9.1129 7.00069 9.12527 6.87503 9.17258 6.76082C9.21988 6.64662 9.29999 6.54901 9.40277 6.48033C9.50555 6.41166 9.62639 6.375 9.75 6.375C9.91576 6.375 10.0747 6.44085 10.1919 6.55806C10.3092 6.67527 10.375 6.83424 10.375 7Z" fill="#008060"/>
</svg>
