<svg width="11" height="9" viewBox="0 0 11 9" fill="none" xmlns="http://www.w3.org/2000/svg">
<path d="M10.7793 1.52715C10.9225 1.35719 11.0018 1.12957 11 0.893296C10.9982 0.657024 10.9155 0.43101 10.7697 0.263934C10.6239 0.0968575 10.4267 0.00208721 10.2205 3.4065e-05C10.0144 -0.00201908 9.81573 0.0888094 9.66743 0.252957L3.92738 6.83118L1.33257 3.85746C1.18427 3.69331 0.985643 3.60249 0.779476 3.60454C0.573308 3.60659 0.376092 3.70136 0.230304 3.86844C0.0845163 4.03552 0.00182126 4.26153 2.97245e-05 4.4978C-0.00176182 4.73408 0.0774936 4.9617 0.220726 5.13166L3.36596 8.73616C3.51341 8.9051 3.71338 9 3.92188 9C4.13038 9 4.33035 8.9051 4.4778 8.73616L10.7683 1.52715H10.7793Z" fill="#C5C6C7"/>
</svg>
