<svg width="19" height="14" viewBox="0 0 19 14" fill="none" xmlns="http://www.w3.org/2000/svg">
<path d="M11.8333 6.83334C11.8333 7.49638 11.5699 8.13226 11.1011 8.6011C10.6323 9.06994 9.99638 9.33334 9.33334 9.33334C8.67029 9.33334 8.03441 9.06994 7.56557 8.6011C7.09673 8.13226 6.83334 7.49638 6.83334 6.83334C6.83334 6.17029 7.09673 5.53441 7.56557 5.06557C8.03441 4.59673 8.67029 4.33334 9.33334 4.33334C9.99638 4.33334 10.6323 4.59673 11.1011 5.06557C11.5699 5.53441 11.8333 6.17029 11.8333 6.83334Z" stroke="#008060" stroke-width="1.5" stroke-linecap="round" stroke-linejoin="round"/>
<path d="M1 6.83333C2.33333 3.41917 5.44667 1 9.33333 1C13.22 1 16.3333 3.41917 17.6667 6.83333C16.3333 10.2475 13.22 12.6667 9.33333 12.6667C5.44667 12.6667 2.33333 10.2475 1 6.83333Z" stroke="#008060" stroke-width="1.5" stroke-linecap="round" stroke-linejoin="round"/>
</svg>
